<svg xmlns="http://www.w3.org/2000/svg" viewBox="0 0 300 64" width="300" height="64"><defs><linearGradient id="t" x1="0" y1="0" x2="1" y2="1"><stop offset="0" stop-color="#13305a"/><stop offset="1" stop-color="#0b1f3a"/></linearGradient><linearGradient id="s" x1="0" y1="0" x2="0" y2="1"><stop offset="0" stop-color="#fde047"/><stop offset="1" stop-color="#f59e0b"/></linearGradient><linearGradient id="c" x1="0" y1="0" x2="0" y2="1"><stop offset="0" stop-color="#3b82f6"/><stop offset="1" stop-color="#1d4ed8"/></linearGradient><clipPath id="k"><rect x="11" y="29" width="42" height="26" rx="5.5"/></clipPath></defs><g><rect width="64" height="64" rx="15" fill="url(#t)"/><path d="M32 7.5v5.5M17.6 12.6l3.4 4.4M46.4 12.6 43 17M9.5 23.4l5.2 2M54.5 23.4l-5.2 2" stroke="#facc15" stroke-width="3.6" stroke-linecap="round"/><path d="M18.5 31.5a13.5 13.5 0 0 1 27 0Z" fill="url(#s)"/><g clip-path="url(#k)"><rect x="11" y="29" width="42" height="26" fill="url(#c)"/><rect x="11" y="48.5" width="42" height="7" fill="#16a34a"/></g><rect x="27.5" y="36" width="9" height="6.5" rx="1.8" fill="#fff"/></g><text x="78" y="36" font-family="Inter,Segoe UI,Helvetica,Arial,sans-serif" font-size="30" font-weight="800" letter-spacing="-0.6" fill="#0b1f3a">Job<tspan fill="#2563eb">Connect</tspan></text><text x="79" y="56" font-family="Inter,Segoe UI,Helvetica,Arial,sans-serif" font-size="13" font-weight="600" letter-spacing="5.2" fill="#64748b">RWANDA</text></svg>
